<?xml version="1.0" standalone="no"?>
<!DOCTYPE svg PUBLIC "-//W3C//DTD SVG 20010904//EN"
 "http://www.w3.org/TR/2001/REC-SVG-20010904/DTD/svg10.dtd">
<svg version="1.0" xmlns="http://www.w3.org/2000/svg"
 width="447.000000pt" height="447.000000pt" viewBox="0 0 447.000000 447.000000"
 preserveAspectRatio="xMidYMid meet">
<metadata>
Created by potrace 1.14, written by Peter Selinger 2001-2017
</metadata>
<g transform="translate(0.000000,447.000000) scale(0.100000,-0.100000)"
fill="#000000" stroke="none">
<path d="M1935 4443 c-965 -129 -1745 -903 -1889 -1874 -119 -800 220 -1617
869 -2100 418 -310 885 -454 1410 -435 598 21 1130 266 1545 712 257 275 453
648 533 1016 42 188 52 283 51 488 0 222 -16 349 -69 555 -144 559 -508 1045
-1006 1343 -258 155 -557 259 -852 297 -148 19 -444 18 -592 -2z m535 -213
c660 -82 1227 -471 1535 -1052 327 -619 305 -1371 -58 -1966 -540 -885 -1656
-1212 -2584 -757 -640 314 -1053 923 -1114 1645 -44 524 145 1078 502 1473
341 378 765 596 1284 660 68 9 357 6 435 -3z"/>
<path d="M963 2920 c-63 -25 -94 -394 -47 -565 53 -197 189 -375 372 -489 262
-163 589 -70 721 206 47 99 63 168 47 198 -9 17 -1050 661 -1065 659 -4 0 -16
-4 -28 -9z m527 -418 c509 -312 471 -278 425 -379 -30 -66 -110 -152 -172
-185 -179 -96 -373 -42 -560 155 -83 88 -143 199 -169 313 -24 109 -14 374 15
374 3 0 211 -125 461 -278z"/>
<path d="M2959 2610 c-288 -176 -529 -329 -535 -341 -17 -30 7 -124 54 -213
138 -264 459 -349 714 -190 303 188 444 509 384 874 -22 136 -34 170 -62 180
-14 6 -26 10 -28 10 -1 0 -238 -144 -527 -320z m506 153 c4 -10 10 -76 12
-148 6 -160 -10 -246 -67 -361 -67 -137 -225 -286 -358 -338 -145 -56 -304
-16 -416 105 -57 61 -117 182 -99 200 13 13 906 559 914 559 4 0 10 -8 14 -17z"/>
<path d="M1972 1427 c-161 -161 -242 -249 -242 -263 0 -25 30 -54 56 -54 11 0
105 86 236 217 l218 218 218 -218 c144 -144 224 -217 238 -217 25 0 54 30 54
56 0 12 -93 113 -243 262 -187 187 -248 242 -267 242 -19 0 -80 -55 -268 -243z"/>
</g>
</svg>
